<svg width="199" height="186" viewBox="0 0 199 186" fill="none">
<rect width="199" height="186" fill="white"/>
<path d="M13 118.341V8H18.6101V118.341H13ZM24.2202 118.341V8H29.8302V118.341H24.2202ZM35.4403 118.341V8H52.2705V118.341H35.4403ZM57.8806 118.341V8H74.7108V118.341H57.8806ZM91.5411 118.341V8H97.1511V118.341H91.5411ZM54.8886 138.913H42.7334V134.612H72.6538V138.913H59.9376V178H54.8886V138.913Z" fill="black"/>
<path d="M102.849 118.341V8H108.459V118.341H102.849ZM114.069 118.341V8H119.679V118.341H114.069ZM125.289 118.341V8H142.119V118.341H125.289ZM147.729 118.341V8H153.34V118.341H147.729ZM170.17 118.341V8H187V118.341H170.17ZM133.891 134.612H138.566L156.706 166.779V134.612H162.129V135.173C161.755 135.422 161.568 135.734 161.568 136.108C161.443 136.357 161.381 136.918 161.381 137.791V178H157.641L138.379 143.963V178H133.891V134.612Z" fill="black"/>
</svg>
